<svg xmlns="http://www.w3.org/2000/svg" viewBox="0 0 400 225">
  <rect width="400" height="225" fill="#1a1a2e"/>
  <!-- Pixel blocks -->
  <rect x="20" y="20" width="20" height="20" fill="#ff4444" opacity="0.8"/>
  <rect x="40" y="20" width="20" height="20" fill="#ff8844" opacity="0.8"/>
  <rect x="60" y="20" width="20" height="20" fill="#ffcc44" opacity="0.8"/>
  <rect x="20" y="40" width="20" height="20" fill="#44ff44" opacity="0.8"/>
  <rect x="40" y="40" width="20" height="20" fill="#4488ff" opacity="0.8"/>
  <rect x="60" y="40" width="20" height="20" fill="#cc44ff" opacity="0.8"/>
  <rect x="300" y="60" width="20" height="20" fill="#44ffcc" opacity="0.7"/>
  <rect x="320" y="60" width="20" height="20" fill="#ff44aa" opacity="0.7"/>
  <rect x="340" y="60" width="20" height="20" fill="#44aaff" opacity="0.7"/>
  <rect x="360" y="60" width="20" height="20" fill="#ffaa44" opacity="0.7"/>
  <rect x="300" y="80" width="20" height="20" fill="#aaff44" opacity="0.7"/>
  <rect x="320" y="80" width="20" height="20" fill="#ff4444" opacity="0.7"/>
  <rect x="340" y="80" width="20" height="20" fill="#44ff88" opacity="0.7"/>
  <rect x="360" y="80" width="20" height="20" fill="#aa44ff" opacity="0.7"/>
  <!-- Center pixel art -->
  <rect x="170" y="70" width="15" height="15" fill="#ff6644"/>
  <rect x="185" y="70" width="15" height="15" fill="#ff8844"/>
  <rect x="200" y="70" width="15" height="15" fill="#ffaa44"/>
  <rect x="215" y="70" width="15" height="15" fill="#ff8844"/>
  <rect x="170" y="85" width="15" height="15" fill="#44ccff"/>
  <rect x="185" y="85" width="15" height="15" fill="#44aaff"/>
  <rect x="200" y="85" width="15" height="15" fill="#4488ff"/>
  <rect x="215" y="85" width="15" height="15" fill="#44aaff"/>
  <rect x="170" y="100" width="15" height="15" fill="#44ff88"/>
  <rect x="185" y="100" width="15" height="15" fill="#44ffaa"/>
  <rect x="200" y="100" width="15" height="15" fill="#44ffcc"/>
  <rect x="215" y="100" width="15" height="15" fill="#44ffaa"/>
  <rect x="0" y="155" width="400" height="70" fill="black" opacity="0.5"/>
  <text x="200" y="200" text-anchor="middle" font-family="monospace" font-size="30" font-weight="bold" fill="#ffcc44" opacity="0.95" letter-spacing="4">PIXEL QUEST</text>
</svg>