<svg xmlns="http://www.w3.org/2000/svg" viewBox="0 0 400 225">
  <defs>
    <linearGradient id="bg" x1="0" y1="0" x2="0" y2="1">
      <stop offset="0%" stop-color="#1a0030"/>
      <stop offset="50%" stop-color="#2a0050"/>
      <stop offset="100%" stop-color="#0a0020"/>
    </linearGradient>
  </defs>
  <rect width="400" height="225" fill="url(#bg)"/>
  <!-- Sun -->
  <circle cx="200" cy="110" r="40" fill="#ff2080" opacity="0.8"/>
  <circle cx="200" cy="110" r="30" fill="#ff4090" opacity="0.6"/>
  <rect x="0" y="115" width="400" height="5" fill="#1a0030"/>
  <rect x="0" y="123" width="400" height="4" fill="#1a0030"/>
  <rect x="0" y="130" width="400" height="3" fill="#1a0030"/>
  <!-- Grid floor -->
  <line x1="0" y1="140" x2="400" y2="140" stroke="#ff40ff" stroke-width="0.5" opacity="0.4"/>
  <line x1="0" y1="160" x2="400" y2="160" stroke="#ff40ff" stroke-width="0.5" opacity="0.35"/>
  <line x1="0" y1="180" x2="400" y2="180" stroke="#ff40ff" stroke-width="0.5" opacity="0.3"/>
  <line x1="0" y1="200" x2="400" y2="200" stroke="#ff40ff" stroke-width="0.5" opacity="0.25"/>
  <line x1="200" y1="135" x2="200" y2="225" stroke="#ff40ff" stroke-width="0.5" opacity="0.4"/>
  <line x1="200" y1="135" x2="50" y2="225" stroke="#ff40ff" stroke-width="0.5" opacity="0.3"/>
  <line x1="200" y1="135" x2="350" y2="225" stroke="#ff40ff" stroke-width="0.5" opacity="0.3"/>
  <line x1="200" y1="135" x2="-100" y2="225" stroke="#ff40ff" stroke-width="0.5" opacity="0.2"/>
  <line x1="200" y1="135" x2="500" y2="225" stroke="#ff40ff" stroke-width="0.5" opacity="0.2"/>
  <rect x="0" y="155" width="400" height="70" fill="black" opacity="0.4"/>
  <text x="200" y="200" text-anchor="middle" font-family="Arial,sans-serif" font-size="32" font-weight="bold" fill="#ff60c0" opacity="0.95" letter-spacing="4">RETRO WAVE</text>
</svg>